<svg xmlns="http://www.w3.org/2000/svg" xmlns:xlink="http://www.w3.org/1999/xlink" contentStyleType="text/css" data-diagram-type="CLASS" height="670px" preserveAspectRatio="none" style="width:633px;height:670px;background:#FFFFFF;" version="1.1" viewBox="0 0 633 670" width="633px" zoomAndPan="magnify"><defs/><g><!--class User--><g class="entity" data-qualified-name="User" data-source-line="6" id="ent0002"><rect fill="#F1F1F1" height="129.4844" rx="2.5" ry="2.5" style="stroke:#181818;stroke-width:0.5;" width="237.627" x="7" y="278.5"/><ellipse cx="105.6084" cy="294.5" fill="#ADD1B2" rx="11" ry="11" style="stroke:#181818;stroke-width:1;"/><path d="M108.5771,300.1406 Q107.999,300.4375 107.3584,300.5781 Q106.7178,300.7344 106.0146,300.7344 Q103.5146,300.7344 102.1865,299.0938 Q100.874,297.4375 100.874,294.3125 Q100.874,291.1875 102.1865,289.5313 Q103.5146,287.875 106.0146,287.875 Q106.7178,287.875 107.3584,288.0313 Q108.0146,288.1875 108.5771,288.4844 L108.5771,291.2031 Q107.9521,290.625 107.3584,290.3594 Q106.7646,290.0781 106.1396,290.0781 Q104.7959,290.0781 104.1084,291.1563 Q103.4209,292.2188 103.4209,294.3125 Q103.4209,296.4063 104.1084,297.4844 Q104.7959,298.5469 106.1396,298.5469 Q106.7646,298.5469 107.3584,298.2813 Q107.9521,298 108.5771,297.4219 L108.5771,300.1406 Z " fill="#000000"/><text fill="#000000" font-family="sans-serif" font-size="14" lengthAdjust="spacing" textLength="31.9102" x="126.1084" y="299.3467">User</text><line style="stroke:#181818;stroke-width:0.5;" x1="8" x2="243.627" y1="310.5" y2="310.5"/><text fill="#000000" font-family="sans-serif" font-size="14" lengthAdjust="spacing" textLength="67.7988" x="13" y="327.4951">+id: Long</text><text fill="#000000" font-family="sans-serif" font-size="14" lengthAdjust="spacing" textLength="132.918" x="13" y="343.792">+username: String</text><text fill="#000000" font-family="sans-serif" font-size="14" lengthAdjust="spacing" textLength="150.6572" x="13" y="360.0889">+role: UserRoleEnum</text><line style="stroke:#181818;stroke-width:1;" x1="8" x2="243.627" y1="367.3906" y2="367.3906"/><text fill="#000000" font-family="sans-serif" font-size="14" lengthAdjust="spacing" textLength="187.332" x="13" y="384.3857">auditLogs: List&lt;AuditLog&gt;</text><text fill="#000000" font-family="sans-serif" font-size="14" lengthAdjust="spacing" textLength="225.627" x="13" y="400.6826">transactions: List&lt;Transaction&gt;</text></g><!--class Product--><g class="entity" data-qualified-name="Product" data-source-line="18" id="ent0003"><rect fill="#F1F1F1" height="178.375" rx="2.5" ry="2.5" style="stroke:#181818;stroke-width:0.5;" width="237.627" x="378" y="7"/><ellipse cx="465.7085" cy="23" fill="#ADD1B2" rx="11" ry="11" style="stroke:#181818;stroke-width:1;"/><path d="M468.6772,28.6406 Q468.0991,28.9375 467.4585,29.0781 Q466.8179,29.2344 466.1147,29.2344 Q463.6147,29.2344 462.2866,27.5938 Q460.9741,25.9375 460.9741,22.8125 Q460.9741,19.6875 462.2866,18.0313 Q463.6147,16.375 466.1147,16.375 Q466.8179,16.375 467.4585,16.5313 Q468.1147,16.6875 468.6772,16.9844 L468.6772,19.7031 Q468.0522,19.125 467.4585,18.8594 Q466.8647,18.5781 466.2397,18.5781 Q464.896,18.5781 464.2085,19.6563 Q463.521,20.7188 463.521,22.8125 Q463.521,24.9063 464.2085,25.9844 Q464.896,27.0469 466.2397,27.0469 Q466.8647,27.0469 467.4585,26.7813 Q468.0522,26.5 468.6772,25.9219 L468.6772,28.6406 Z " fill="#000000"/><text fill="#000000" font-family="sans-serif" font-size="14" lengthAdjust="spacing" textLength="53.71" x="486.2085" y="27.8467">Product</text><line style="stroke:#181818;stroke-width:0.5;" x1="379" x2="614.627" y1="39" y2="39"/><text fill="#000000" font-family="sans-serif" font-size="14" lengthAdjust="spacing" textLength="67.7988" x="384" y="55.9951">+id: Long</text><text fill="#000000" font-family="sans-serif" font-size="14" lengthAdjust="spacing" textLength="102.3818" x="384" y="72.292">+name: String</text><text fill="#000000" font-family="sans-serif" font-size="14" lengthAdjust="spacing" textLength="123.5596" x="384" y="88.5889">+nsnCode: String</text><text fill="#000000" font-family="sans-serif" font-size="14" lengthAdjust="spacing" textLength="140.5195" x="384" y="104.8857">+description: String</text><text fill="#000000" font-family="sans-serif" font-size="14" lengthAdjust="spacing" textLength="99.5723" x="384" y="121.1826">+parLevel: int</text><text fill="#000000" font-family="sans-serif" font-size="14" lengthAdjust="spacing" textLength="119.4238" x="384" y="137.4795">+active: boolean</text><line style="stroke:#181818;stroke-width:1;" x1="379" x2="614.627" y1="144.7813" y2="144.7813"/><text fill="#000000" font-family="sans-serif" font-size="14" lengthAdjust="spacing" textLength="152.7764" x="384" y="161.7764">batches: List&lt;Batch&gt;</text><text fill="#000000" font-family="sans-serif" font-size="14" lengthAdjust="spacing" textLength="225.627" x="384" y="178.0732">transactions: List&lt;Transaction&gt;</text></g><!--class Batch--><g class="entity" data-qualified-name="Batch" data-source-line="33" id="ent0004"><rect fill="#F1F1F1" height="162.0781" rx="2.5" ry="2.5" style="stroke:#181818;stroke-width:0.5;" width="241.8721" x="280" y="262"/><ellipse cx="376.5645" cy="278" fill="#ADD1B2" rx="11" ry="11" style="stroke:#181818;stroke-width:1;"/><path d="M379.5332,283.6406 Q378.9551,283.9375 378.3145,284.0781 Q377.6738,284.2344 376.9707,284.2344 Q374.4707,284.2344 373.1426,282.5938 Q371.8301,280.9375 371.8301,277.8125 Q371.8301,274.6875 373.1426,273.0313 Q374.4707,271.375 376.9707,271.375 Q377.6738,271.375 378.3145,271.5313 Q378.9707,271.6875 379.5332,271.9844 L379.5332,274.7031 Q378.9082,274.125 378.3145,273.8594 Q377.7207,273.5781 377.0957,273.5781 Q375.752,273.5781 375.0645,274.6563 Q374.377,275.7188 374.377,277.8125 Q374.377,279.9063 375.0645,280.9844 Q375.752,282.0469 377.0957,282.0469 Q377.7207,282.0469 378.3145,281.7813 Q378.9082,281.5 379.5332,280.9219 L379.5332,283.6406 Z " fill="#000000"/><text fill="#000000" font-family="sans-serif" font-size="14" lengthAdjust="spacing" textLength="40.2432" x="397.0645" y="282.8467">Batch</text><line style="stroke:#181818;stroke-width:0.5;" x1="281" x2="520.8721" y1="294" y2="294"/><text fill="#000000" font-family="sans-serif" font-size="14" lengthAdjust="spacing" textLength="67.7988" x="286" y="310.9951">+id: Long</text><text fill="#000000" font-family="sans-serif" font-size="14" lengthAdjust="spacing" textLength="136.8623" x="286" y="327.292">+lotNumber: String</text><text fill="#000000" font-family="sans-serif" font-size="14" lengthAdjust="spacing" textLength="97.5146" x="286" y="343.5889">+quantity: int</text><text fill="#000000" font-family="sans-serif" font-size="14" lengthAdjust="spacing" textLength="229.8721" x="286" y="359.8857">+expirationDate: LocalDateTime</text><text fill="#000000" font-family="sans-serif" font-size="14" lengthAdjust="spacing" textLength="118.2275" x="286" y="376.1826">+location: String</text><line style="stroke:#181818;stroke-width:1;" x1="281" x2="520.8721" y1="383.4844" y2="383.4844"/><text fill="#000000" font-family="sans-serif" font-size="14" lengthAdjust="spacing" textLength="117.0313" x="286" y="400.4795">product: Product</text><text fill="#000000" font-family="sans-serif" font-size="14" lengthAdjust="spacing" textLength="225.627" x="286" y="416.7764">transactions: List&lt;Transaction&gt;</text></g><!--class Transaction--><g class="entity" data-qualified-name="Transaction" data-source-line="47" id="ent0005"><rect fill="#F1F1F1" height="162.0781" rx="2.5" ry="2.5" style="stroke:#181818;stroke-width:0.5;" width="220.8857" x="290.5" y="501"/><ellipse cx="355.6191" cy="517" fill="#ADD1B2" rx="11" ry="11" style="stroke:#181818;stroke-width:1;"/><path d="M358.5879,522.6406 Q358.0098,522.9375 357.3691,523.0781 Q356.7285,523.2344 356.0254,523.2344 Q353.5254,523.2344 352.1973,521.5938 Q350.8848,519.9375 350.8848,516.8125 Q350.8848,513.6875 352.1973,512.0313 Q353.5254,510.375 356.0254,510.375 Q356.7285,510.375 357.3691,510.5313 Q358.0254,510.6875 358.5879,510.9844 L358.5879,513.7031 Q357.9629,513.125 357.3691,512.8594 Q356.7754,512.5781 356.1504,512.5781 Q354.8066,512.5781 354.1191,513.6563 Q353.4316,514.7188 353.4316,516.8125 Q353.4316,518.9063 354.1191,519.9844 Q354.8066,521.0469 356.1504,521.0469 Q356.7754,521.0469 357.3691,520.7813 Q357.9629,520.5 358.5879,519.9219 L358.5879,522.6406 Z " fill="#000000"/><text fill="#000000" font-family="sans-serif" font-size="14" lengthAdjust="spacing" textLength="82.1475" x="376.1191" y="521.8467">Transaction</text><line style="stroke:#181818;stroke-width:0.5;" x1="291.5" x2="510.3857" y1="533" y2="533"/><text fill="#000000" font-family="sans-serif" font-size="14" lengthAdjust="spacing" textLength="67.7988" x="296.5" y="549.9951">+id: Long</text><text fill="#000000" font-family="sans-serif" font-size="14" lengthAdjust="spacing" textLength="208.8857" x="296.5" y="566.292">+type: TransactionTypeEnum</text><text fill="#000000" font-family="sans-serif" font-size="14" lengthAdjust="spacing" textLength="97.5146" x="296.5" y="582.5889">+quantity: int</text><text fill="#000000" font-family="sans-serif" font-size="14" lengthAdjust="spacing" textLength="138.3252" x="296.5" y="598.8857">+createdAt: Instant</text><line style="stroke:#181818;stroke-width:1;" x1="291.5" x2="510.3857" y1="606.1875" y2="606.1875"/><text fill="#000000" font-family="sans-serif" font-size="14" lengthAdjust="spacing" textLength="71.6133" x="296.5" y="623.1826">user: User</text><text fill="#000000" font-family="sans-serif" font-size="14" lengthAdjust="spacing" textLength="117.0313" x="296.5" y="639.4795">product: Product</text><text fill="#000000" font-family="sans-serif" font-size="14" lengthAdjust="spacing" textLength="88.9355" x="296.5" y="655.7764">batch: Batch</text></g><!--class AuditLog--><g class="entity" data-qualified-name="AuditLog" data-source-line="61" id="ent0006"><rect fill="#F1F1F1" height="162.0781" rx="2.5" ry="2.5" style="stroke:#181818;stroke-width:0.5;" width="151.4395" x="50.5" y="501"/><ellipse cx="91.3623" cy="517" fill="#ADD1B2" rx="11" ry="11" style="stroke:#181818;stroke-width:1;"/><path d="M94.331,522.6406 Q93.7529,522.9375 93.1123,523.0781 Q92.4716,523.2344 91.7685,523.2344 Q89.2685,523.2344 87.9404,521.5938 Q86.6279,519.9375 86.6279,516.8125 Q86.6279,513.6875 87.9404,512.0313 Q89.2685,510.375 91.7685,510.375 Q92.4716,510.375 93.1123,510.5313 Q93.7685,510.6875 94.331,510.9844 L94.331,513.7031 Q93.706,513.125 93.1123,512.8594 Q92.5185,512.5781 91.8935,512.5781 Q90.5498,512.5781 89.8623,513.6563 Q89.1748,514.7188 89.1748,516.8125 Q89.1748,518.9063 89.8623,519.9844 Q90.5498,521.0469 91.8935,521.0469 Q92.5185,521.0469 93.1123,520.7813 Q93.706,520.5 94.331,519.9219 L94.331,522.6406 Z " fill="#000000"/><text fill="#000000" font-family="sans-serif" font-size="14" lengthAdjust="spacing" textLength="61.9678" x="111.1094" y="521.8467">AuditLog</text><line style="stroke:#181818;stroke-width:0.5;" x1="51.5" x2="200.9395" y1="533" y2="533"/><text fill="#000000" font-family="sans-serif" font-size="14" lengthAdjust="spacing" textLength="67.7988" x="56.5" y="549.9951">+id: Long</text><text fill="#000000" font-family="sans-serif" font-size="14" lengthAdjust="spacing" textLength="105.7725" x="56.5" y="566.292">+action: String</text><text fill="#000000" font-family="sans-serif" font-size="14" lengthAdjust="spacing" textLength="139.4395" x="56.5" y="582.5889">+tableName: String</text><text fill="#000000" font-family="sans-serif" font-size="14" lengthAdjust="spacing" textLength="123.5527" x="56.5" y="598.8857">+oldValue: String</text><text fill="#000000" font-family="sans-serif" font-size="14" lengthAdjust="spacing" textLength="131.1475" x="56.5" y="615.1826">+newValue: String</text><text fill="#000000" font-family="sans-serif" font-size="14" lengthAdjust="spacing" textLength="138.3252" x="56.5" y="631.4795">+createdAt: Instant</text><line style="stroke:#181818;stroke-width:1;" x1="51.5" x2="200.9395" y1="638.7813" y2="638.7813"/><text fill="#000000" font-family="sans-serif" font-size="14" lengthAdjust="spacing" textLength="71.6133" x="56.5" y="655.7764">user: User</text></g><!--link Product to Batch--><g class="link" data-entity-1="ent0003" data-entity-2="ent0004" data-link-type="dependency" data-source-line="76" id="lnk7"><path codeLine="76" d="M460.2899,190.686 C450.4999,215.656 444.2897,231.5239 434.6897,256.0139" fill="none" id="Product-Batch" style="stroke:#181818;stroke-width:1;"/><polygon fill="#181818" points="462.48,185.1,455.4708,192.0189,460.6549,189.755,462.9188,194.9391,462.48,185.1" style="stroke:#181818;stroke-width:1;"/><polygon fill="#181818" points="432.5,261.6,439.5087,254.6806,434.3248,256.9449,432.0605,251.761,432.5,261.6" style="stroke:#181818;stroke-width:1;"/><text fill="#000000" font-family="sans-serif" font-size="13" lengthAdjust="spacing" textLength="55.0278" x="450" y="228.0669">contains</text><text fill="#000000" font-family="sans-serif" font-size="13" lengthAdjust="spacing" textLength="8.271" x="451.1974" y="205.4581">1</text><text fill="#000000" font-family="sans-serif" font-size="13" lengthAdjust="spacing" textLength="23.0356" x="411.2258" y="251.0294">0..*</text></g><!--link Product to Transaction--><g class="link" data-entity-1="ent0003" data-entity-2="ent0005" data-link-type="dependency" data-source-line="77" id="lnk8"><path codeLine="77" d="M532.8288,190.7634 C553.6188,258.1534 569.33,346.63 540,424 C529.42,451.91 515.284,473.5197 495.624,496.1597" fill="none" id="Product-Transaction" style="stroke:#181818;stroke-width:1;"/><polygon fill="#181818" points="531.06,185.03,529.8909,194.8092,532.534,189.8078,537.5354,192.4509,531.06,185.03" style="stroke:#181818;stroke-width:1;"/><polygon fill="#181818" points="491.69,500.69,500.6112,496.5172,494.9683,496.9147,494.5708,491.2719,491.69,500.69" style="stroke:#181818;stroke-width:1;"/><text fill="#000000" font-family="sans-serif" font-size="13" lengthAdjust="spacing" textLength="69.4116" x="556" y="347.5669">tracked by</text><text fill="#000000" font-family="sans-serif" font-size="13" lengthAdjust="spacing" textLength="8.271" x="525.671" y="205.382">1</text><text fill="#000000" font-family="sans-serif" font-size="13" lengthAdjust="spacing" textLength="23.0356" x="475.7495" y="489.8497">0..*</text></g><!--link User to Transaction--><g class="link" data-entity-1="ent0002" data-entity-2="ent0005" data-link-type="dependency" data-source-line="79" id="lnk9"><path codeLine="79" d="M204.2352,411.4267 C237.5752,440.1567 268.2346,466.5834 303.5846,497.0434" fill="none" id="User-Transaction" style="stroke:#181818;stroke-width:1;"/><polygon fill="#181818" points="199.69,407.51,203.8967,416.4153,203.4777,410.774,209.119,410.355,199.69,407.51" style="stroke:#181818;stroke-width:1;"/><polygon fill="#181818" points="308.13,500.96,303.923,492.0549,304.3422,497.6962,298.7009,498.1153,308.13,500.96" style="stroke:#181818;stroke-width:1;"/><text fill="#000000" font-family="sans-serif" font-size="13" lengthAdjust="spacing" textLength="58.9063" x="273" y="467.0669">performs</text><text fill="#000000" font-family="sans-serif" font-size="13" lengthAdjust="spacing" textLength="8.271" x="199.7851" y="427.8827">1</text><text fill="#000000" font-family="sans-serif" font-size="13" lengthAdjust="spacing" textLength="23.0356" x="275.5153" y="489.8671">0..*</text></g><!--link User to AuditLog--><g class="link" data-entity-1="ent0002" data-entity-2="ent0006" data-link-type="dependency" data-source-line="80" id="lnk10"><path codeLine="80" d="M126,413.51 C126,442.17 126,464.34 126,494.74" fill="none" id="User-AuditLog" style="stroke:#181818;stroke-width:1;"/><polygon fill="#181818" points="126,407.51,122,416.51,126,412.51,130,416.51,126,407.51" style="stroke:#181818;stroke-width:1;"/><polygon fill="#181818" points="126,500.74,130,491.74,126,495.74,122,491.74,126,500.74" style="stroke:#181818;stroke-width:1;"/><text fill="#000000" font-family="sans-serif" font-size="13" lengthAdjust="spacing" textLength="65.6665" x="127" y="467.0669">generates</text><text fill="#000000" font-family="sans-serif" font-size="13" lengthAdjust="spacing" textLength="8.271" x="117.5747" y="427.8827">1</text><text fill="#000000" font-family="sans-serif" font-size="13" lengthAdjust="spacing" textLength="23.0356" x="101.9578" y="489.9041">0..*</text></g><!--link Batch to Transaction--><g class="link" data-entity-1="ent0004" data-entity-2="ent0005" data-link-type="dependency" data-source-line="82" id="lnk11"><path codeLine="82" d="M401,430.24 C401,454.95 401,470.14 401,494.85" fill="none" id="Batch-Transaction" style="stroke:#181818;stroke-width:1;"/><polygon fill="#181818" points="401,424.24,397,433.24,401,429.24,405,433.24,401,424.24" style="stroke:#181818;stroke-width:1;"/><polygon fill="#181818" points="401,500.85,405,491.85,401,495.85,397,491.85,401,500.85" style="stroke:#181818;stroke-width:1;"/><text fill="#000000" font-family="sans-serif" font-size="13" lengthAdjust="spacing" textLength="44.1353" x="402" y="467.0669">affects</text><text fill="#000000" font-family="sans-serif" font-size="13" lengthAdjust="spacing" textLength="8.271" x="392.6615" y="444.2127">1</text><text fill="#000000" font-family="sans-serif" font-size="13" lengthAdjust="spacing" textLength="23.0356" x="376.9825" y="490.0239">0..*</text></g><?plantuml-src hPHTRvim58Rl-HLMBlPLfUjkKHU94jIY8eZ0sRqn9vbLi9bjkcNJ_djj21qDAKpQk43swuFjvptde1uOhuaa5Q8bKShJMhAyqH1ImJFs4z2Luxn5dyy_PcMR1Mc6tg0qYO9i8hBT7MqLIFJBGUY25IwA1D_RSMDKJYfmKMPExpGfIZEtyQaP1RofZBfScXTf2gOZiLTc0wRqjNUShyoQbeGhGZKJl5_6VwILytiQPfCcwwsFvpasKXGDrMEKKmokk2-A5r81YafMsmiDPPE421wXT17ZsWhspe_cormO0mZlyNEYwLVewMxix3-GttZOlmioz2vACCAfvz-7yUtxMH_QuySkb4B7JPM3709-QmZNJ1-U0U57pIInrriJ3VPhIaexnAo2RXjAJcngBQWxzzq-3V-ERuZZpFDncCJ6Wmmd_ZqAuu_95izxC3Xdx8G-r8Pi48ADSApciIDKWi4lF8CMSgL9gxR8jaMwTZZFtrQ5s-LZ3jRRhaECekHslixxtXg3TJJ3_6gIbn2VrByeYo-aR5xs17mVQNz5FiEL1f7NPl0kt4oXENttBZujqFLokKABgylB3ujZDRl8_FeqOLoz6ZXCkMjhZpv0WVA3uxG_kEdm6kHEo4gTZtrst4Lxu63w0vJZT3URtfViTa2rUW80?></g></svg>